<svg id="Capa_1" data-name="Capa 1" xmlns="http://www.w3.org/2000/svg" viewBox="0 0 392.88 370.05"><defs><style>.cls-1{fill:#305590;}.cls-2{fill:none;stroke:#305590;stroke-miterlimit:10;stroke-width:3.05px;}</style></defs><path class="cls-1" d="M48.75,357.94v1.16q0,8.36-5,13.66-5.3,5.6-13.8,5.59T16.1,372.76q-5-5.31-5-13.66V337.92q0-8.35,5-13.67,5.29-5.58,13.81-5.58,8.81,0,13.82,5.58a18.69,18.69,0,0,1,5,12.9v1.92H41.29v-1.15a12.57,12.57,0,0,0-2.69-8.36,10.79,10.79,0,0,0-8.69-4,10.8,10.8,0,0,0-8.7,4,12.57,12.57,0,0,0-2.69,8.36V359.1a12.54,12.54,0,0,0,2.69,8.35,10.77,10.77,0,0,0,8.7,4,10.77,10.77,0,0,0,8.69-4,11.42,11.42,0,0,0,2.69-7.58v-1.93Z" transform="translate(-11.06 -8.29)"/><path class="cls-1" d="M59.25,377.58V319.44H85.37v7H66.72V345H85.37v7H66.72v18.56H91.61v7Z" transform="translate(-11.06 -8.29)"/><path class="cls-1" d="M100.35,377.58V337.92q0-8.32,5-13.67,5.3-5.58,13.81-5.58A18.41,18.41,0,0,1,133,324.25q5,5.16,5,13.67v39.66h-7.46V337.92a12.57,12.57,0,0,0-2.69-8.36,11.53,11.53,0,0,0-17.39,0,12.57,12.57,0,0,0-2.69,8.36v39.66Z" transform="translate(-11.06 -8.29)"/><path class="cls-1" d="M156.76,377.58V326.44H142.29v-7H178.7v7H164.23v51.14Z" transform="translate(-11.06 -8.29)"/><path class="cls-1" d="M186.21,377.58V319.44h7.46V345h22V319.44h7.46v58.14h-7.46V352h-22v25.57Z" transform="translate(-11.06 -8.29)"/><path class="cls-1" d="M249.46,377.58V358.94a18.13,18.13,0,0,1-10.07-5.27q-5-5.13-5-13.67V319.44h7.46V340a12.54,12.54,0,0,0,2.69,8.35,10.79,10.79,0,0,0,8.7,4q5.67,0,8.69-4a13.42,13.42,0,0,0,2.69-8.35V319.44H272V340q0,8.31-5,13.67a17.27,17.27,0,0,1-10.08,5.27v18.64Z" transform="translate(-11.06 -8.29)"/><path class="cls-1" d="M283.24,377.58V319.44h7.46v51.13h24.06v7Z" transform="translate(-11.06 -8.29)"/><path class="cls-1" d="M318.75,359.1V337.92q0-8.35,5-13.67,5.31-5.58,13.81-5.58t13.81,5.58q5,5.28,5,13.67V359.1q0,8.36-5,13.66-5.29,5.6-13.81,5.59t-13.81-5.59Q318.76,367.45,318.75,359.1Zm7.46,0a12.54,12.54,0,0,0,2.69,8.35,11.51,11.51,0,0,0,17.39,0A12.54,12.54,0,0,0,349,359.1V337.92a12.57,12.57,0,0,0-2.69-8.36,11.53,11.53,0,0,0-17.39,0,12.57,12.57,0,0,0-2.69,8.36Z" transform="translate(-11.06 -8.29)"/><path class="cls-1" d="M366.25,377.58V337.92q0-8.32,5-13.67,5.29-5.58,13.8-5.58a18.41,18.41,0,0,1,13.81,5.58q5,5.16,5,13.67v39.66h-7.46V337.92a12.57,12.57,0,0,0-2.69-8.36,11.53,11.53,0,0,0-17.39,0,12.57,12.57,0,0,0-2.69,8.36v39.66Z" transform="translate(-11.06 -8.29)"/><path class="cls-1" d="M306.31,159.91c2.32,2.5,14.11,41.21,11.33,47.18a1.52,1.52,0,0,1-1.91.82c-3.9-1.48-10.92-6-11.07-9.12-.08-1.88,1.62-4.81,2.09-6.61a1.55,1.55,0,0,0-.51-1.55c-1-.89-2-3.53-2.06-6.64-.13-3.67-2.66-13.16-4.05-15.74s-12.37,3-22.45,5.31l-.36.09c-.24-5.31-1.77-10.51-3.59-13.36l.46,0c2.22-.25,17.09-2,21.78-3S303.87,157.29,306.31,159.91Z" transform="translate(-11.06 -8.29)"/><path class="cls-1" d="M293.09,190.55c1.73,3.15,9.84,40.91,6.42,46.39a1.52,1.52,0,0,1-2,.58c-3.72-1.9-10.24-7.16-10.06-10.3.1-1.64,1.7-3.22,2.59-4.49a1.67,1.67,0,0,0-.19-2.06c-.77-.85-1.27-2.77-1.15-6.71.15-5.06-1.31-13.36-2.38-16.1s-31.16,17.11-36.9,16.83a13.77,13.77,0,0,1-1.36-27.42,1.59,1.59,0,0,0,1.38-1.6v-.08a1.56,1.56,0,0,0-1.7-1.59A16.86,16.86,0,0,0,233,201a17.16,17.16,0,0,0,7.16,14,16.09,16.09,0,0,0,9.34,3c-10.95,6.9-46.12-8-57.15-8.3-5.09-.33-12.54,2.44-18.83,6.46l-.31.2a17.45,17.45,0,0,0-3.14-15.53,16.17,16.17,0,0,0-21.82-3.38,1.67,1.67,0,0,0-.35,2.41,1.62,1.62,0,0,0,1.25.6,1.5,1.5,0,0,0,.85-.27,13,13,0,0,1,17.63,2.72,14.06,14.06,0,0,1-1.09,18.71c-5.59,5.64-23.43,27.37-25.23,28.07-5.26,3.61-8.41,6-9.55,7.28a21.6,21.6,0,0,0-3.21,4.94c-1,2.15-2.41,15.69-2.26,17.14.06.57,3.77,9.49,3,10.92s-3.54,2.85-7.09,2.67a23.34,23.34,0,0,1-5.8-1.09,1.57,1.57,0,0,1-1-.95c-.7-1.86-2.16-6.83-.93-11.08,1.47-5.11,1.67-4.72,1.69-5.71s-.94-.61-.92-2.66,2.78-4.87,3.45-6.09a31.6,31.6,0,0,0,1.92-4.31,37.53,37.53,0,0,0,2.54-9.85,24.48,24.48,0,0,1,2.79-10.45,126.43,126.43,0,0,1,9.5-13c3.56-4.21-.86-38,10.85-48.61-.63-.71-7.32-4.73-15,.18-13.67,8.76,6.23,31.09-3.16,46.06-5.33,8.27-17.31,10.4-32,3.73-2.77-1.57,11.36-.81,15.83-11.67s-4.5-19,0-33.07,26.82-20.83,37.65-8.36c6.49-5.16,15.9-8.22,28.6-8.2,6.68,0,12.81,1.43,18.08.84,18.75-2.07,36.06-16,38.54-33.72,0-.14,0-.27.05-.41.5-4.29-2.46-7.47-2.28-10,.15-1.3,1.14-1.91,2.28-2.53a10.48,10.48,0,0,0,3.09-2.16c3.05-3.25,1.94-6.47.68-11.11a43,43,0,0,1-1.35-6.5c-.54-4.46,1.37-7.73,4.21-10.89,3-3.37,7.13-6.62,10.42-11,10.21-14.63-1.32-16.27,1.82-26.55,1.81-4.62,5-4,7.78-6.6a8.23,8.23,0,0,0,2.18-3.42c1.57.53,2,4.14,1.68,6.52s3.67,5.43,4.27,6.21a.3.3,0,0,1,.07.14,3.37,3.37,0,0,1-.39,1.62,3.08,3.08,0,0,0-.48,1.22,4.6,4.6,0,0,0,.75,1.16c.35.46-.46,2.34.3,3.11s.53,3.62.53,3.62c0,1.63-1.18,3-3.55,3.34-2.39.17-3.93,0-5.6.56-1.22.44-3.43,4.4-3.78,7.1-.14,1.09.79,1.73,1.86,1.71,3.46-.08,5.53,2.4,4.88,5.74s1.51,10.69,1.83,11.46a4.33,4.33,0,0,1-.44,2.92c-1.66,3.67-4.38,10.36-4.33,10-12.45-31.48-38.09-13.23-.43,19.76a1.61,1.61,0,0,1,.53,1c1.22,8.82,7.55,26.25,9.22,30,1.94,4.44,3.21,8.06,3.44,13.36a31.92,31.92,0,0,1-.13,4.9c-.22,1.73-.45,3.21-.76,4.6l-.11.46H258.4a1.56,1.56,0,0,0-1.54,1.58,1.6,1.6,0,0,0,.45,1.12,1.49,1.49,0,0,0,1.09.46h14.65c.23,0,5.58-.3,5.58-.3,2-.12,3.63-.24,4.72-.34C288.1,186.06,291.26,187.21,293.09,190.55Z" transform="translate(-11.06 -8.29)"/><path class="cls-1" d="M283.91,73.93c0,2.15-2.31,9-5.87,13.5-2,2.85-2.11,3.35-2.42,4.83-.75,6.13-5.68,22.62-9.77,31.07a3.74,3.74,0,0,1-5.86,1.24c-27.42-24.1-14.16-42.92-.36-11.9a1.51,1.51,0,0,0,2.78,0c2.6-5.72,7.79-17.78,8.67-20.18a1.5,1.5,0,0,0,.08-.81c-.29-1.92-1.64-7.42-.62-10.6a33.72,33.72,0,0,1,1.4-4.57.49.49,0,0,1,.6-.33c.57.16,1.36.78.89,2.89-.82,3.62.44,4.17,1.44,4.33s1,.16,3.59-3.22a17.65,17.65,0,0,0,3.31-7C282.3,71.52,283.91,72.08,283.91,73.93Z" transform="translate(-11.06 -8.29)"/><path class="cls-1" d="M230.83,51.86c-1.58-21,41.13-20.18,28.78-6.64-.17.17-.35.32-.52.46-2.62,2.07-5.67,1.34-7.73,6.47-4.44,12.06,7.63,14-2,26.42C243,87.12,233.8,91.41,234.9,100.63c.58,8.76,6.66,15.53-1.3,19.1-5.12,2.57-3.21,5.72-1.9,9.11.84,2.19,1.44,4.47-.27,6.76-6.31,8.43-29.09-10.72-21.18-17.68,15.86-14,1-19.59,5.67-28.76s19.11-10.41,16.73-24c-.45-2.57-1.71-12.44-1.81-13.2C230.84,51.92,230.83,51.89,230.83,51.86Z" transform="translate(-11.06 -8.29)"/><path class="cls-1" d="M193.64,212.66c.61,0,14.4,0-7.29,23.63l-.16.15c-12.25,10.48-17,2.71-19.82,15.9a11.06,11.06,0,0,0,.16,4.11c.82,6.6,3.43,18.1,3.59,19.67,0,.05,0,.1,0,.16.46,2.58,9.41,9.26,10,11.22s-1.88,3.18-6.92,4.16a.9.9,0,0,1-.16,0,28.72,28.72,0,0,1-7.91-.26c-1.57-.38-2.71-3-3.42-5.5-.26-.95-.53-2.78-1-5.4l0-.11a23.48,23.48,0,0,0-.89-4.86c-.38-1-1.66-.64-1.93-2.94-.23-1.33,1.06-4.86-.62-11.19-.49-1.86-1.79-2.75-2.55-6.07-.68-3,2.39-12.57,6.27-21.58C165.25,223.88,181.22,212.74,193.64,212.66Z" transform="translate(-11.06 -8.29)"/><path class="cls-2" d="M358.19,292a187.34,187.34,0,0,0,27.56-98.27C385.75,92.16,305.94,9.82,207.5,9.82S29.25,92.16,29.25,193.73A187.34,187.34,0,0,0,56.81,292" transform="translate(-11.06 -8.29)"/></svg>