<?xml version="1.0" encoding="UTF-8"?>
<svg id="Capa_1" data-name="Capa 1" xmlns="http://www.w3.org/2000/svg" version="1.1" viewBox="0 0 833.6 119.6">
  <defs>
    <style>
      .cls-1 {
        fill: #305590;
        stroke-width: 0px;
      }
    </style>
  </defs>
  <path class="cls-1" d="M80,79.2v2.4c0,11.5-3.6,20.8-10.7,28.1-7.5,7.7-17.3,11.5-29.3,11.5s-21.8-3.8-29.3-11.5C3.6,102.4,0,93,0,81.6v-43.6c0-11.5,3.6-20.8,10.7-28.1C18.2,2.2,28-1.6,40-1.6s22.2,3.8,29.3,11.5c7.1,7.7,10.7,16.5,10.7,26.5v3.9h-15.8v-2.4c0-7.1-1.9-12.8-5.7-17.2-4.7-5.4-10.8-8.2-18.4-8.2s-13.8,2.7-18.5,8.2c-3.8,4.4-5.7,10.1-5.7,17.2v43.6c0,7.1,1.9,12.8,5.7,17.2,4.7,5.4,10.8,8.2,18.5,8.2s13.8-2.7,18.4-8.2c3.8-4.4,5.7-9.6,5.7-15.6v-4h15.8Z"/>
  <path class="cls-1" d="M102.3,119.6V0h55.4v14.4h-39.6v38.2h39.6v14.4h-39.6v38.2h52.8v14.4h-68.6Z"/>
  <path class="cls-1" d="M189.5,119.6V38c0-11.4,3.6-20.8,10.7-28.1,7.5-7.7,17.3-11.5,29.3-11.5s21.6,3.8,29.3,11.5c7.1,7.1,10.7,16.4,10.7,28.1v81.6h-15.8V38c0-7.1-1.9-12.8-5.7-17.2-4.7-5.4-10.8-8.2-18.5-8.2s-13.8,2.7-18.5,8.2c-3.8,4.4-5.7,10.1-5.7,17.2v81.6h-15.8Z"/>
  <path class="cls-1" d="M309.1,119.6V14.4h-30.7V0h77.3v14.4h-30.7v105.2h-15.8Z"/>
  <path class="cls-1" d="M371.6,119.6V0h15.8v52.6h46.7V0h15.8v119.6h-15.8v-52.6h-46.7v52.6h-15.8Z"/>
  <path class="cls-1" d="M505.8,119.6v-38.3c-8.3-1.4-15.4-5-21.4-10.8-7.1-7-10.7-16.4-10.7-28.1V0h15.8v42.3c0,7.1,1.9,12.8,5.7,17.2,4.7,5.4,10.8,8.2,18.5,8.2s14.2-2.7,18.5-8.2c3.8-4.9,5.7-10.6,5.7-17.2V0h15.8v42.3c0,11.4-3.6,20.8-10.7,28.1-5.8,5.9-12.9,9.5-21.4,10.8v38.3h-15.8Z"/>
  <path class="cls-1" d="M577.5,119.6V0h15.8v105.2h51v14.4h-66.9Z"/>
  <path class="cls-1" d="M652.8,81.6v-43.6c0-11.5,3.6-20.8,10.7-28.1,7.5-7.7,17.3-11.5,29.3-11.5s21.8,3.8,29.3,11.5c7.1,7.2,10.7,16.6,10.7,28.1v43.6c0,11.5-3.6,20.8-10.7,28.1-7.5,7.7-17.3,11.5-29.3,11.5s-21.8-3.8-29.3-11.5c-7.1-7.3-10.7-16.7-10.7-28.1ZM668.7,81.6c0,7.1,1.9,12.8,5.7,17.2,4.7,5.4,10.8,8.2,18.5,8.2s13.8-2.7,18.4-8.2c3.8-4.4,5.7-10.1,5.7-17.2v-43.6c0-7.1-1.9-12.8-5.7-17.2-4.7-5.4-10.8-8.2-18.4-8.2s-13.8,2.7-18.5,8.2c-3.8,4.4-5.7,10.1-5.7,17.2v43.6Z"/>
  <path class="cls-1" d="M753.6,119.6V38c0-11.4,3.6-20.8,10.7-28.1,7.5-7.7,17.3-11.5,29.3-11.5s21.6,3.8,29.3,11.5c7.1,7.1,10.7,16.4,10.7,28.1v81.6h-15.8V38c0-7.1-1.9-12.8-5.7-17.2-4.7-5.4-10.8-8.2-18.5-8.2s-13.8,2.7-18.4,8.2c-3.8,4.4-5.7,10.1-5.7,17.2v81.6h-15.8Z"/>
</svg>